<?xml version="1.0" encoding="UTF-8" standalone="no"?>
<!-- Created with Inkscape (http://www.inkscape.org/) -->

<svg
   width="300mm"
   height="300mm"
   viewBox="0 0 300 300"
   version="1.1"
   id="svg1"
   xml:space="preserve"
   sodipodi:docname="Documento sin nombre 1"
   xmlns:inkscape="http://www.inkscape.org/namespaces/inkscape"
   xmlns:sodipodi="http://sodipodi.sourceforge.net/DTD/sodipodi-0.dtd"
   xmlns:xlink="http://www.w3.org/1999/xlink"
   xmlns="http://www.w3.org/2000/svg"
   xmlns:svg="http://www.w3.org/2000/svg"><sodipodi:namedview
     id="namedview1"
     pagecolor="#ffffff"
     bordercolor="#000000"
     borderopacity="0.25"
     inkscape:showpageshadow="2"
     inkscape:pageopacity="0.0"
     inkscape:pagecheckerboard="0"
     inkscape:deskcolor="#5c5c5c"
     inkscape:document-units="mm"
     showguides="true"
     inkscape:clip-to-page="false"
     labelstyle="default"
     inkscape:lockguides="false"
     showgrid="true"
     inkscape:zoom="0.35945918"
     inkscape:cx="1097.4821"
     inkscape:cy="677.40655"
     inkscape:window-width="1920"
     inkscape:window-height="1016"
     inkscape:window-x="0"
     inkscape:window-y="0"
     inkscape:window-maximized="1"
     inkscape:current-layer="layer1"><sodipodi:guide
       position="-310,299.99999"
       orientation="0,793.70079"
       inkscape:locked="false"
       id="guide8" /><sodipodi:guide
       position="-100,3"
       orientation="0,-793.70079"
       inkscape:locked="false"
       id="guide10" /><sodipodi:guide
       position="-310,3"
       orientation="-1122.5197,0"
       inkscape:locked="false"
       id="guide11" /><inkscape:grid
       type="axonomgrid"
       id="grid11"
       units="mm"
       originx="-310"
       originy="0"
       spacingx="0.99999998"
       spacingy="1"
       empcolor="#0099e5"
       empopacity="0.30196078"
       color="#0099e5"
       opacity="0.14901961"
       empspacing="5"
       dotted="false"
       gridanglex="30"
       gridanglez="30"
       enabled="false"
       visible="true" /><inkscape:grid
       id="grid12"
       units="mm"
       originx="-310"
       originy="0"
       spacingx="0.99999998"
       spacingy="1"
       empcolor="#0099e5"
       empopacity="0.30196078"
       color="#0099e5"
       opacity="0.14901961"
       empspacing="5"
       enabled="false"
       visible="true" /><inkscape:grid
       type="modular"
       id="grid13"
       units="mm"
       originx="-310"
       originy="0"
       spacingx="39.999999"
       spacingy="40.000001"
       empcolor="#0047cb"
       empopacity="0.30196078"
       color="#0099e5"
       opacity="0.14901961"
       empspacing="0"
       marginx="0"
       marginy="0"
       gapx="9.9999998"
       gapy="10"
       enabled="false"
       visible="true" /><inkscape:grid
       type="axonomgrid"
       id="grid14"
       units="mm"
       originx="-310"
       originy="0"
       spacingx="0.99999998"
       spacingy="1"
       empcolor="#0099e5"
       empopacity="0.30196078"
       color="#0099e5"
       opacity="0.14901961"
       empspacing="5"
       dotted="false"
       gridanglex="30"
       gridanglez="30"
       enabled="false"
       visible="true" /><inkscape:grid
       id="grid15"
       units="mm"
       originx="-310"
       originy="0"
       spacingx="0.99999998"
       spacingy="1"
       empcolor="#0099e5"
       empopacity="0.30196078"
       color="#0099e5"
       opacity="0.14901961"
       empspacing="5"
       enabled="false"
       visible="true" /><inkscape:grid
       id="grid16"
       units="mm"
       originx="-310"
       originy="0"
       spacingx="0.99999998"
       spacingy="1"
       empcolor="#0099e5"
       empopacity="0.30196078"
       color="#0099e5"
       opacity="0.14901961"
       empspacing="5"
       enabled="false"
       visible="true" /><inkscape:grid
       id="grid17"
       units="mm"
       originx="-310"
       originy="0"
       spacingx="0.99999998"
       spacingy="1"
       empcolor="#0099e5"
       empopacity="0.30196078"
       color="#0099e5"
       opacity="0.14901961"
       empspacing="5"
       enabled="false"
       visible="true" /><inkscape:page
       x="0"
       y="0"
       width="300"
       height="300"
       id="page49"
       margin="0"
       bleed="0" /></sodipodi:namedview><defs
     id="defs1"><linearGradient
       id="linearGradient9"
       inkscape:collect="always"><stop
         style="stop-color:#020202;stop-opacity:1;"
         offset="0.18829452"
         id="stop9" /><stop
         style="stop-color:#404040;stop-opacity:1;"
         offset="0.65696877"
         id="stop11" /><stop
         style="stop-color:#d3d3d3;stop-opacity:1;"
         offset="1"
         id="stop10" /></linearGradient><linearGradient
       id="swatch7"
       inkscape:swatch="solid"><stop
         style="stop-color:#ff0000;stop-opacity:1;"
         offset="0"
         id="stop7" /></linearGradient><linearGradient
       inkscape:collect="always"
       xlink:href="#linearGradient9"
       id="linearGradient59"
       gradientUnits="userSpaceOnUse"
       x1="113.76714"
       y1="197.61908"
       x2="96.30584"
       y2="156.48282" /><filter
       inkscape:collect="always"
       style="color-interpolation-filters:sRGB"
       id="filter65"
       x="-0.0099046337"
       y="-0.0098852056"
       width="1.0198093"
       height="1.0197704"><feGaussianBlur
         inkscape:collect="always"
         stdDeviation="0.47549943"
         id="feGaussianBlur65" /></filter></defs><g
     inkscape:label="Capa 1"
     inkscape:groupmode="layer"
     id="layer1"
     transform="translate(-310)"><g
       id="g59"
       transform="matrix(2.5779398,0,0,2.5779398,190.37466,-231.76572)"
       style="mix-blend-mode:normal;fill:#000000;fill-opacity:1;filter:url(#filter65)"><path
         id="path54"
         style="fill:#000000;fill-opacity:1;stroke-width:0.20871"
         d="m 105.29527,110.26404 -43.691778,17.27363 43.777878,16.68781 33.41148,-12.74718 c -0.1153,2.16304 -0.18266,4.33783 -0.24376,6.51444 -2.09454,0.73433 -3.49667,2.71166 -3.49672,4.93119 -1e-5,2.07484 1.2275,3.95314 3.12781,4.78607 -0.23022,3.68821 -0.62321,7.33577 -1.38598,10.89084 h 7.25799 c -0.8136,-3.65241 -1.25507,-7.30488 -1.53109,-10.95729 1.82175,-0.86574 2.98262,-2.70262 2.98268,-4.71962 -2.1e-4,-2.20859 -1.38893,-4.17857 -3.46899,-4.921 -0.10135,-2.53609 -0.21085,-5.07242 -0.39826,-7.60855 l 7.49604,-2.85671 z"
         sodipodi:nodetypes="ccccccccccccccc" /><path
         d="m 83.013797,138.56955 c -2.26005,3.19343 -2.9152,6.38686 -2.467835,9.58029 10.055311,0.80169 17.847043,5.56489 24.821848,11.75748 v -12.48348 z m 44.708843,4.1e-4 -22.35402,8.85469 v 12.48308 c 6.9748,-6.19259 14.76613,-10.95579 24.82144,-11.75748 0.44736,-3.19344 -0.20738,-6.38686 -2.46742,-9.58029 z"
         style="fill:#000000;fill-opacity:1;stroke-width:0.20871"
         id="path55" /><path
         id="path56"
         style="font-weight:bold;font-size:40.3486px;font-family:'Liberation Sans';-inkscape-font-specification:'Liberation Sans, Bold';fill:#000000;fill-opacity:1;stroke-width:3.36238"
         d="m 82.69211,164.3202 v 3.99976 h 10.066052 v 21.45209 h 6.526734 v -21.45209 l 3.223054,-0.0558 c -0.54146,0.86161 -0.81235,1.85858 -0.81235,2.99051 0,0.87722 0.1399,1.65533 0.42013,2.33371 0.29499,0.67838 0.70076,1.26906 1.21698,1.77199 0.51622,0.50295 1.14305,0.93553 1.88051,1.29811 0.73746,0.35089 1.56343,0.66064 2.47788,0.92966 0.91445,0.25731 2.53652,0.60232 4.86689,1.03508 2.6991,0.43277 4.52084,0.80125 5.46478,1.10535 0.9587,0.3041 1.69605,0.68436 2.21227,1.1405 0.53096,0.45616 0.79633,1.03507 0.79633,1.73685 0,2.19889 -2.27878,3.2985 -6.83627,3.2985 -2.19762,0 -3.9158,-0.29265 -5.15473,-0.87746 -1.23893,-0.66157 -2.82006,-1.54978 -3.24777,-2.85977 l -3.96342,2.84158 c 1.39714,2.11812 2.23747,2.60425 3.14448,3.0888 1.38239,0.73851 5.04767,1.68414 9.0447,1.68414 4.3805,0 7.69885,-0.63766 9.95547,-1.91255 2.27137,-1.28658 3.40703,-3.14027 3.40703,-5.56141 0,-1.02926 -0.19863,-1.93557 -0.59687,-2.71922 -0.39823,-0.79534 -0.97378,-1.47411 -1.72599,-2.03553 -0.75221,-0.57312 -1.77734,-1.0698 -3.07526,-1.49087 -1.28317,-0.43276 -3.42155,-0.90111 -6.41563,-1.40405 -2.52211,-0.43276 -4.19597,-0.78899 -5.02192,-1.0697 -0.82596,-0.29241 -1.4533,-0.64379 -1.88102,-1.05316 -0.41298,-0.40936 -0.61909,-0.93542 -0.61909,-1.57872 0,-1.96498 1.97607,-2.94762 5.92884,-2.94762 1.85841,0 3.28183,0.26915 4.27003,0.80718 1.00294,0.53803 1.66661,1.33911 1.99109,2.40347 l 6.32726,-0.68419 c -0.56047,-2.21059 -1.81412,-3.79514 -3.76101,-4.75423 -2.9928,-1.48561 -5.35885,-1.33252 -6.5319,-1.4609 z"
         sodipodi:nodetypes="cccccccscscccccsscccsscsccccccsscccccc" /><g
         id="g58"
         transform="translate(0,0.33436224)"
         style="fill:#000000;fill-opacity:1"><path
           style="fill:#000000;fill-opacity:1;stroke:none;stroke-width:0.36803"
           d="m 99.650898,205.6677 c -9.649005,-0.95236 -20.229029,-4.90472 -28.23125,-10.54628 -3.905437,-2.75334 -9.923338,-8.63217 -12.687858,-12.39466 -4.153625,-5.65305 -7.508666,-12.38603 -9.293127,-18.64967 -0.983306,-3.45151 -2.047992,-9.08735 -2.047992,-10.84091 v -1.05588 h 3.496284 3.496282 v 1.13828 c 0,0.62606 0.329438,2.75486 0.732084,4.73068 5.453197,26.75929 30.387785,44.29638 57.299819,40.30033 5.67993,-0.84339 9.67376,-2.10937 15.022,-4.76176 5.71716,-2.83534 9.98126,-5.96181 14.25215,-10.44979 7.16228,-7.52632 11.69927,-16.68313 13.37862,-27.00142 l 0.6439,-3.95632 h 3.44877 3.44875 l -0.23267,1.93215 c -2.64436,21.95965 -16.62839,40.10527 -36.95376,47.95107 -7.80118,3.01133 -17.72191,4.39873 -25.772002,3.60418 z"
           id="path57" /><path
           style="fill:#000000;fill-opacity:1;stroke-width:0.36803"
           d="m 47.390672,143.02776 c 0,-0.58074 0.252593,-2.52669 0.561319,-4.32435 2.095916,-12.2042 7.676875,-22.87147 16.536194,-31.60676 25.761656,-25.400988 67.975555,-21.182402 88.212025,8.81535 5.20592,7.71706 8.53214,16.7367 9.67645,26.23948 l 0.23267,1.93216 h -3.46717 -3.46717 l -0.24144,-1.74814 c -1.62141,-11.73998 -6.12642,-21.32448 -13.73537,-29.22225 -7.30434,-7.58159 -15.91758,-12.41351 -26.2519,-14.726986 -5.08692,-1.138775 -15.33554,-1.232839 -20.202933,-0.185431 -14.945582,3.216127 -27.061823,11.821307 -34.224422,24.306817 -3.443705,6.0029 -5.882256,13.23267 -6.501595,19.2758 l -0.235739,2.30019 h -3.44546 -3.44546 z"
           id="path58" /></g></g><g
       id="g65"
       transform="matrix(2.5779398,0,0,2.5779398,189.31632,-232.82406)"><path
         id="path60"
         style="fill:#ec0000;fill-opacity:1;stroke-width:0.20871"
         d="m 105.29527,110.26404 -43.691778,17.27363 43.777878,16.68781 33.41148,-12.74718 c -0.1153,2.16304 -0.18266,4.33783 -0.24376,6.51444 -2.09454,0.73433 -3.49667,2.71166 -3.49672,4.93119 -1e-5,2.07484 1.2275,3.95314 3.12781,4.78607 -0.23022,3.68821 -0.62321,7.33577 -1.38598,10.89084 h 7.25799 c -0.8136,-3.65241 -1.25507,-7.30488 -1.53109,-10.95729 1.82175,-0.86574 2.98262,-2.70262 2.98268,-4.71962 -2.1e-4,-2.20859 -1.38893,-4.17857 -3.46899,-4.921 -0.10135,-2.53609 -0.21085,-5.07242 -0.39826,-7.60855 l 7.49604,-2.85671 z"
         sodipodi:nodetypes="ccccccccccccccc" /><path
         d="m 83.013797,138.56955 c -2.26005,3.19343 -2.9152,6.38686 -2.467835,9.58029 10.055311,0.80169 17.847043,5.56489 24.821848,11.75748 v -12.48348 z m 44.708843,4.1e-4 -22.35402,8.85469 v 12.48308 c 6.9748,-6.19259 14.76613,-10.95579 24.82144,-11.75748 0.44736,-3.19344 -0.20738,-6.38686 -2.46742,-9.58029 z"
         style="fill:#ec0000;fill-opacity:1;stroke-width:0.20871"
         id="path61" /><path
         id="path62"
         style="font-weight:bold;font-size:40.3486px;font-family:'Liberation Sans';-inkscape-font-specification:'Liberation Sans, Bold';fill:url(#linearGradient59);stroke-width:3.36238"
         d="m 82.69211,164.3202 v 3.99976 h 10.066052 v 21.45209 h 6.526734 v -21.45209 l 3.223054,-0.0558 c -0.54146,0.86161 -0.81235,1.85858 -0.81235,2.99051 0,0.87722 0.1399,1.65533 0.42013,2.33371 0.29499,0.67838 0.70076,1.26906 1.21698,1.77199 0.51622,0.50295 1.14305,0.93553 1.88051,1.29811 0.73746,0.35089 1.56343,0.66064 2.47788,0.92966 0.91445,0.25731 2.53652,0.60232 4.86689,1.03508 2.6991,0.43277 4.52084,0.80125 5.46478,1.10535 0.9587,0.3041 1.69605,0.68436 2.21227,1.1405 0.53096,0.45616 0.79633,1.03507 0.79633,1.73685 0,2.19889 -2.27878,3.2985 -6.83627,3.2985 -2.19762,0 -3.9158,-0.29265 -5.15473,-0.87746 -1.23893,-0.66157 -2.82006,-1.54978 -3.24777,-2.85977 l -3.96342,2.84158 c 1.39714,2.11812 2.23747,2.60425 3.14448,3.0888 1.38239,0.73851 5.04767,1.68414 9.0447,1.68414 4.3805,0 7.69885,-0.63766 9.95547,-1.91255 2.27137,-1.28658 3.40703,-3.14027 3.40703,-5.56141 0,-1.02926 -0.19863,-1.93557 -0.59687,-2.71922 -0.39823,-0.79534 -0.97378,-1.47411 -1.72599,-2.03553 -0.75221,-0.57312 -1.77734,-1.0698 -3.07526,-1.49087 -1.28317,-0.43276 -3.42155,-0.90111 -6.41563,-1.40405 -2.52211,-0.43276 -4.19597,-0.78899 -5.02192,-1.0697 -0.82596,-0.29241 -1.4533,-0.64379 -1.88102,-1.05316 -0.41298,-0.40936 -0.61909,-0.93542 -0.61909,-1.57872 0,-1.96498 1.97607,-2.94762 5.92884,-2.94762 1.85841,0 3.28183,0.26915 4.27003,0.80718 1.00294,0.53803 1.66661,1.33911 1.99109,2.40347 l 6.32726,-0.68419 c -0.56047,-2.21059 -1.81412,-3.79514 -3.76101,-4.75423 -2.9928,-1.48561 -5.35885,-1.33252 -6.5319,-1.4609 z"
         sodipodi:nodetypes="cccccccscscccccsscccsscsccccccsscccccc" /><g
         id="g64"
         transform="translate(0,0.33436224)"><path
           style="fill:#ff0000;fill-opacity:1;stroke:none;stroke-width:0.36803"
           d="m 99.650898,205.6677 c -9.649005,-0.95236 -20.229029,-4.90472 -28.23125,-10.54628 -3.905437,-2.75334 -9.923338,-8.63217 -12.687858,-12.39466 -4.153625,-5.65305 -7.508666,-12.38603 -9.293127,-18.64967 -0.983306,-3.45151 -2.047992,-9.08735 -2.047992,-10.84091 v -1.05588 h 3.496284 3.496282 v 1.13828 c 0,0.62606 0.329438,2.75486 0.732084,4.73068 5.453197,26.75929 30.387785,44.29638 57.299819,40.30033 5.67993,-0.84339 9.67376,-2.10937 15.022,-4.76176 5.71716,-2.83534 9.98126,-5.96181 14.25215,-10.44979 7.16228,-7.52632 11.69927,-16.68313 13.37862,-27.00142 l 0.6439,-3.95632 h 3.44877 3.44875 l -0.23267,1.93215 c -2.64436,21.95965 -16.62839,40.10527 -36.95376,47.95107 -7.80118,3.01133 -17.72191,4.39873 -25.772002,3.60418 z"
           id="path63" /><path
           style="fill:#000000;fill-opacity:1;stroke-width:0.36803"
           d="m 47.390672,143.02776 c 0,-0.58074 0.252593,-2.52669 0.561319,-4.32435 2.095916,-12.2042 7.676875,-22.87147 16.536194,-31.60676 25.761656,-25.400988 67.975555,-21.182402 88.212025,8.81535 5.20592,7.71706 8.53214,16.7367 9.67645,26.23948 l 0.23267,1.93216 h -3.46717 -3.46717 l -0.24144,-1.74814 c -1.62141,-11.73998 -6.12642,-21.32448 -13.73537,-29.22225 -7.30434,-7.58159 -15.91758,-12.41351 -26.2519,-14.726986 -5.08692,-1.138775 -15.33554,-1.232839 -20.202933,-0.185431 -14.945582,3.216127 -27.061823,11.821307 -34.224422,24.306817 -3.443705,6.0029 -5.882256,13.23267 -6.501595,19.2758 l -0.235739,2.30019 h -3.44546 -3.44546 z"
           id="path64" /></g></g></g></svg>
